<?xml version="1.0" encoding="UTF-8"?>
<svg id="Layer_2" data-name="Layer 2" xmlns="http://www.w3.org/2000/svg" xmlns:xlink="http://www.w3.org/1999/xlink" viewBox="0 0 447.5 378.77">
  <defs>
    <style>
      .cls-1 {
        fill: #a6b3fd;
      }

      .cls-2 {
        fill: url(#linear-gradient-3);
      }

      .cls-3 {
        fill: url(#linear-gradient-2);
      }

      .cls-4 {
        fill: url(#linear-gradient);
      }

      .cls-5 {
        fill: #1d1a4a;
      }

      .cls-6 {
        fill: #302c80;
      }

      .cls-7 {
        fill: #fff;
      }

      .cls-8 {
        fill: #c9d2fc;
      }
    </style>
    <linearGradient id="linear-gradient" x1="223.5" y1="0" x2="223.5" y2="311.5" gradientUnits="userSpaceOnUse">
      <stop offset="0" stop-color="#e1e7fd"/>
      <stop offset="1" stop-color="#a6b3fd"/>
    </linearGradient>
    <linearGradient id="linear-gradient-2" x1="115.49" y1="87.03" x2="175.51" y2="190.97" gradientUnits="userSpaceOnUse">
      <stop offset="0" stop-color="#effdff"/>
      <stop offset=".97" stop-color="#c9d2fc"/>
      <stop offset="1" stop-color="#b6f1fa"/>
    </linearGradient>
    <linearGradient id="linear-gradient-3" x1="277.49" x2="337.51" xlink:href="#linear-gradient-2"/>
  </defs>
  <g id="Base_Mark" data-name="Base Mark">
    <rect class="cls-6" x=".5" y="0" width="447" height="315" rx="150" ry="150"/>
    <path class="cls-6" d="M347.08,274.11l-26.91,7.79c-2.85.83-4.47,3.9-3.63,6.87l12.47,43.89c.84,2.97,3.84,4.71,6.69,3.88l26.91-7.79c2.85-.83,4.47-3.9,3.63-6.87l-12.47-43.89c-.84-2.97-3.84-4.71-6.69-3.88Z"/>
    <path class="cls-6" d="M101.98,271.11l26.91,7.79c2.85.83,4.47,3.9,3.63,6.87l-12.47,43.89c-.84,2.97-3.84,4.71-6.69,3.88l-26.91-7.79c-2.85-.83-4.47-3.9-3.63-6.87l12.47-43.89c.84-2.97,3.84-4.71,6.69-3.88Z"/>
    <path class="cls-6" d="M363.38,315.03c15.08,6.33,26.57,25.42,25.66,42.65-.91,17.22-13.13,24.34-28.95,19.73-11-3.21-13.34-13.02-17.78-19.21-1.2-1.68-3.5-1.43-4.26.45-2.8,6.92-6.78,13.53-10.54,12.85-5.39-.97-6.15-11.25-3.99-25.5,2.16-14.25,5.68-20.39,13.5-23.41"/>
    <path class="cls-6" d="M86.31,311.6c-15.01,6.49-26.51,25.92-25.69,43.38.82,17.47,12.92,24.63,28.65,19.87,10.94-3.31,13.31-13.27,17.75-19.57,1.2-1.71,3.49-1.47,4.23.43,2.75,7.01,6.66,13.69,10.41,12.98,5.36-1.01,6.16-11.44,4.08-25.88-2.08-14.44-5.54-20.66-13.29-23.68"/>
    <path class="cls-1" d="M84.47,313.27c-14.74,5.84-25.85,23.75-24.81,40.01,1.04,16.26,13.09,23.08,28.58,18.86,10.77-2.93,12.98-12.17,17.28-17.96,1.17-1.57,3.43-1.32,4.19.46,2.81,6.55,6.77,12.82,10.46,12.21,5.28-.87,5.93-10.56,3.69-24.02-2.24-13.46-5.75-19.29-13.45-22.21"/>
    <path class="cls-1" d="M366.54,316.84c15.28,5.8,26.7,23.83,25.51,40.26-1.19,16.43-13.76,23.4-29.81,19.24-11.17-2.89-13.41-12.21-17.83-18.04-1.2-1.58-3.55-1.31-4.35.49-2.96,6.64-7.12,13-10.95,12.41-5.48-.84-6.09-10.63-3.67-24.24,2.42-13.61,6.1-19.52,14.12-22.52"/>
    <rect class="cls-4" x="0" y="0" width="447" height="311.5" rx="150" ry="150"/>
    <rect class="cls-6" x="32.5" y="32" width="387" height="238" rx="119" ry="119"/>
    <g id="eye">
      <circle class="cls-3" cx="145.5" cy="139" r="60"/>
      <circle class="cls-5" cx="145.5" cy="139" r="48"/>
      <circle class="cls-7" cx="167.32" cy="135.73" r="7.64"/>
      <circle class="cls-7" cx="149.32" cy="118.82" r="10.36"/>
    </g>
    <g id="eye-2" data-name="eye">
      <circle class="cls-2" cx="307.5" cy="139" r="60"/>
      <circle class="cls-5" cx="307.5" cy="139" r="48"/>
      <circle class="cls-7" cx="329.32" cy="135.73" r="7.64"/>
      <circle class="cls-7" cx="311.32" cy="118.82" r="10.36"/>
    </g>
    <path class="cls-8" d="M273.8,214.73c-6.67,10.02-21.03,14.94-32.5,15.8-10.93.82-23.82-1.55-33.05-7.78-5.35-3.61-10.36,5.05-5.05,8.63,22.69,15.33,63.31,12.31,79.23-11.61,3.58-5.37-5.08-10.38-8.63-5.05h0Z"/>
    <circle class="cls-8" cx="280.09" cy="217.53" r="10.5"/>
  </g>
</svg>